# xmcd
#
# Track frame offsets: 
#        150
#        13312
#        28399
#        43210
#        58695
#        74012
#        89156
#        104039
#        120288
#        136497
#        154630
#
# Disc length: 2305 seconds
#
# Revision: 0
# Processed by: cddbd v1.5.2PL0 Copyright (c) Steve Scherf et al.
# Submitted via: ExactAudioCopy v0.99pb4
#
DISCID=a808ff0b
DTITLE=Katie Armiger - Believe
DYEAR=2008
DGENRE=Country
TTITLE0=Jealousy
TTITLE1=Gone
TTITLE2=Break Yours First
TTITLE3=Unseen
TTITLE4=Movin On
TTITLE5=Trail Of Lies
TTITLE6=Bleed
TTITLE7=Something Better
TTITLE8=The Road Is Calling
TTITLE9=Wash Away
TTITLE10=Make Me Believe
EXTD=
EXTT0=
EXTT1=
EXTT2=
EXTT3=
EXTT4=
EXTT5=
EXTT6=
EXTT7=
EXTT8=
EXTT9=
EXTT10=
PLAYORDER=
